<?xml version="1.0" encoding="utf-8"?>
<!-- Generator: Adobe Illustrator 18.0.0, SVG Export Plug-In . SVG Version: 6.00 Build 0)  -->
<!DOCTYPE svg PUBLIC "-//W3C//DTD SVG 1.1//EN" "http://www.w3.org/Graphics/SVG/1.1/DTD/svg11.dtd">
<svg version="1.1" id="Warstwa_1" xmlns="http://www.w3.org/2000/svg" xmlns:xlink="http://www.w3.org/1999/xlink" x="0px" y="0px"
	 viewBox="0 0 74.8 96.7" enable-background="new 0 0 74.8 96.7" xml:space="preserve">
<g>
	<path d="M51.6,82c0,0.7,0.6,1.3,1.3,1.3c0.7,0,1.3-0.6,1.3-1.3v-0.8c2.3-0.6,3.9-2.6,3.9-5.1s-1.7-4.5-3.9-5.1v-5
		c1.1,0.4,2,1.2,2.4,1.6c0.5,0.5,1.3,0.5,1.9,0c0.5-0.5,0.5-1.4,0-1.9c-0.2-0.2-2-2-4.3-2.5v-0.8c0-0.7-0.6-1.3-1.3-1.3
		c-0.7,0-1.3,0.6-1.3,1.3v0.8c-2.2,0.6-3.8,2.6-3.8,5c0,2.4,1.6,4.4,3.8,5v4.9c-1-0.5-2-1.5-2.3-1.9c-0.5-0.6-1.3-0.6-1.9-0.1
		c-0.6,0.5-0.6,1.3-0.1,1.9c0.2,0.3,2.1,2.3,4.3,3V82z M55.5,76.2c0,0.9-0.5,1.8-1.3,2.2V74C55,74.4,55.5,75.3,55.5,76.2 M50.4,68.4
		c0-0.9,0.5-1.7,1.2-2.2v4.3C50.9,70.1,50.4,69.3,50.4,68.4"/>
	<path d="M36.4,82c0,0.7,0.6,1.3,1.3,1.3c0.7,0,1.3-0.6,1.3-1.3v-0.8c2.3-0.6,3.9-2.6,3.9-5.1S41.2,71.6,39,71v-5
		c1.1,0.4,2,1.2,2.4,1.6c0.5,0.5,1.3,0.5,1.9,0c0.5-0.5,0.5-1.4,0-1.9c-0.2-0.2-2-2-4.3-2.5v-0.8c0-0.7-0.6-1.3-1.3-1.3
		c-0.7,0-1.3,0.6-1.3,1.3v0.8c-2.2,0.6-3.8,2.6-3.8,5c0,2.4,1.6,4.4,3.8,5v4.9c-1-0.5-2-1.5-2.3-1.9c-0.5-0.6-1.3-0.6-1.9-0.1
		c-0.6,0.5-0.6,1.3-0.1,1.9c0.2,0.3,2.1,2.3,4.3,3V82z M40.3,76.2c0,0.9-0.5,1.8-1.3,2.2V74C39.8,74.4,40.3,75.3,40.3,76.2
		 M35.2,68.4c0-0.9,0.5-1.7,1.2-2.2v4.3C35.7,70.1,35.2,69.3,35.2,68.4"/>
	<path d="M20.6,82c0,0.7,0.6,1.3,1.3,1.3c0.7,0,1.3-0.6,1.3-1.3v-0.8c2.3-0.6,3.9-2.6,3.9-5.1s-1.7-4.5-3.9-5.1v-5
		c1.1,0.4,2,1.2,2.4,1.6c0.5,0.5,1.3,0.5,1.9,0c0.5-0.5,0.5-1.4,0-1.9c-0.2-0.2-2-2-4.3-2.5v-0.8c0-0.7-0.6-1.3-1.3-1.3
		c-0.7,0-1.3,0.6-1.3,1.3v0.8c-2.2,0.6-3.8,2.6-3.8,5c0,2.4,1.6,4.4,3.8,5v4.9c-1-0.5-2-1.5-2.3-1.9c-0.5-0.6-1.3-0.6-1.9-0.1
		c-0.6,0.5-0.6,1.3-0.1,1.9c0.2,0.3,2.1,2.3,4.3,3V82z M24.5,76.2c0,0.9-0.5,1.8-1.3,2.2V74C24,74.4,24.5,75.3,24.5,76.2 M19.4,68.4
		c0-0.9,0.5-1.7,1.2-2.2v4.3C19.9,70.1,19.4,69.3,19.4,68.4"/>
	<path d="M72.5,96.7H2.2c-1.2,0-2.2-1-2.2-2.2V2.2C0,1,1,0,2.2,0h70.4c1.2,0,2.2,1,2.2,2.2v92.3C74.7,95.7,73.7,96.7,72.5,96.7
		 M4.4,92.3h65.9V4.4H4.4V92.3z"/>
	<path d="M23.5,23.2h-5c-1.2,0-2.2-1-2.2-2.2s1-2.2,2.2-2.2h5c1.2,0,2.2,1,2.2,2.2S24.7,23.2,23.5,23.2"/>
	<path d="M23.5,37.4h-5c-1.2,0-2.2-1-2.2-2.2c0-1.2,1-2.2,2.2-2.2h5c1.2,0,2.2,1,2.2,2.2C25.7,36.4,24.7,37.4,23.5,37.4"/>
	<path d="M23.5,51.8h-5c-1.2,0-2.2-1-2.2-2.2c0-1.2,1-2.2,2.2-2.2h5c1.2,0,2.2,1,2.2,2.2C25.7,50.8,24.7,51.8,23.5,51.8"/>
	<path d="M56.1,23.2h-24c-1.2,0-2.2-1-2.2-2.2s1-2.2,2.2-2.2h24c1.2,0,2.2,1,2.2,2.2S57.4,23.2,56.1,23.2"/>
	<path d="M56.1,37.4h-24c-1.2,0-2.2-1-2.2-2.2c0-1.2,1-2.2,2.2-2.2h24c1.2,0,2.2,1,2.2,2.2C58.3,36.4,57.4,37.4,56.1,37.4"/>
	<path d="M56.1,51.8h-24c-1.2,0-2.2-1-2.2-2.2c0-1.2,1-2.2,2.2-2.2h24c1.2,0,2.2,1,2.2,2.2C58.3,50.8,57.4,51.8,56.1,51.8"/>
</g>
</svg>
