<?xml version="1.0" encoding="utf-8"?>
<!-- Generator: Adobe Illustrator 18.0.0, SVG Export Plug-In . SVG Version: 6.00 Build 0)  -->
<!DOCTYPE svg PUBLIC "-//W3C//DTD SVG 1.1//EN" "http://www.w3.org/Graphics/SVG/1.1/DTD/svg11.dtd">
<svg version="1.1" id="Warstwa_1" xmlns="http://www.w3.org/2000/svg" xmlns:xlink="http://www.w3.org/1999/xlink" x="0px" y="0px"
	 viewBox="0 0 33 48" enable-background="new 0 0 33 48" xml:space="preserve">
<g>
	<path fill="#010101" d="M32,0H1C0.5,0,0,0.5,0,1v46c0,0.6,0.5,1,1,1h31c0.6,0,1-0.5,1-1V1C33,0.5,32.5,0,32,0 M31,45.9H2V2.1H31
		L31,45.9L31,45.9z"/>
	<path fill="#010101" d="M9.4,27.3L9.4,27.3h14.1c1.7,0,3.1,1.4,3.1,3.1s-1.4,3.1-3.1,3.1H9.2c-0.6,0-1,0.5-1,1c0,0.6,0.5,1,1,1
		h14.5c0.1,0,0.1,0,0.2,0c2.6-0.2,4.7-2.4,4.7-5.1c0-2.7-2.1-4.9-4.7-5.1c-0.1,0-0.1,0-0.2,0H9.4c-1.7,0-3.1-1.4-3.1-3.1
		c0-1.7,1.4-3.1,3.1-3.1h14.3c0.6,0,1-0.5,1-1c0-0.6-0.5-1-1-1H9.4c-2.8,0-5.1,2.3-5.1,5.1C4.3,25,6.6,27.3,9.4,27.3"/>
	<path fill="#010101" d="M26.8,37.5c-0.4-0.4-1-0.4-1.4,0L23.9,39l-1.5-1.5c-0.4-0.4-1-0.4-1.4,0c-0.4,0.4-0.4,1,0,1.5l1.5,1.5
		L21,41.9c-0.4,0.4-0.4,1,0,1.4c0.2,0.2,0.5,0.3,0.7,0.3c0.3,0,0.5-0.1,0.7-0.3l1.5-1.5l1.5,1.5c0.2,0.2,0.5,0.3,0.7,0.3
		c0.3,0,0.5-0.1,0.7-0.3c0.4-0.4,0.4-1,0-1.4l-1.5-1.5l1.5-1.5C27.2,38.5,27.2,37.9,26.8,37.5"/>
	<path fill="#010101" d="M9.4,14.9h14.1c1.7,0,3.1,1.4,3.1,3.1s-1.4,3.1-3.1,3.1H9.2c-0.6,0-1,0.5-1,1c0,0.6,0.5,1,1,1h14.5
		c0.1,0,0.1,0,0.2,0c2.6-0.2,4.7-2.4,4.7-5.1s-2.1-4.9-4.7-5.1c-0.1,0-0.1,0-0.2,0H9.4c-1.7,0-3.1-1.4-3.1-3.1
		c0-1.7,1.4-3.1,3.1-3.1h2.9c0.6,0,1-0.5,1-1c0-0.6-0.5-1-1-1H9.4c-2.8,0-5.1,2.3-5.1,5.1C4.3,12.6,6.6,14.9,9.4,14.9"/>
	<path fill="#010101" d="M9.4,31.4h14.3c0.6,0,1-0.5,1-1c0-0.6-0.5-1-1-1H9.4c-0.6,0-1,0.5-1,1C8.4,30.9,8.8,31.4,9.4,31.4"/>
</g>
</svg>
