<?xml version="1.0" encoding="utf-8"?>
<!-- Generator: Adobe Illustrator 18.0.0, SVG Export Plug-In . SVG Version: 6.00 Build 0)  -->
<!DOCTYPE svg PUBLIC "-//W3C//DTD SVG 1.1//EN" "http://www.w3.org/Graphics/SVG/1.1/DTD/svg11.dtd">
<svg version="1.1" id="Warstwa_1" xmlns="http://www.w3.org/2000/svg" xmlns:xlink="http://www.w3.org/1999/xlink" x="0px" y="0px"
	 viewBox="0 0 512 384" enable-background="new 0 0 512 384" xml:space="preserve">
<g>
	<path d="M0,328V56c0.4-1.1,0.7-2.2,1-3.3C6.3,22.6,32.5,0.1,63.1,0.1C191.7,0,320.3,0,448.9,0.1c29.1,0,54.4,20.5,61.3,48.8
		c0.6,2.4,1.3,4.8,1.9,7.1v272c-0.4,0.7-0.7,1.5-0.9,2.2c-4.8,26.6-23.2,47-49.5,51.9c-12.3,2.3-25.2,1.7-37.8,1.8
		c-119.7,0.1-239.5,0.1-359.3,0c-29.4,0-54.2-18.6-62.2-46.4C1.6,334.5,0.8,331.2,0,328 M174.2,187.4c-8,7.9-15.6,15.4-23,22.9
		l-81.5,81.2c-4.9,4.9-7.2,10.4-5.1,17.2c3.7,12.2,18,15.2,27.6,5.6c33.9-33.7,67.7-67.5,101.4-101.4c1.2-1.5,2.4-3,3.4-4.7
		c2.8,2.6,4.7,4.2,6.5,5.8l40.7,37c7.7,7,15.8,6.9,23.6-0.1c14.1-12.7,28.2-25.5,42.2-38.3c1.3-1.2,2.7-2.4,4.3-3.8
		c12.7,12.8,25.2,25.3,37.6,37.8l67.8,67.8c4.6,4.6,9.9,6.8,16.3,5.1c12.4-3.4,16-17.8,6.6-27.3c-22.7-22.8-45.4-45.6-68.2-68.2
		c-12.1-12.1-24.3-24.2-36.6-36.5c1.6-1.5,2.9-2.8,4.3-4l49.5-45l50.7-46.1c4.9-4.4,6.8-9.9,5.2-16.2c-1.3-5.7-5.7-10.2-11.4-11.5
		c-6.4-1.7-11.6,0.6-16.4,5c-53.2,48.4-106.4,96.9-159.8,145.2c-1.3,1.2-2.7,2.3-4.1,3.6L179.7,149c-29.3-26.6-58.7-53.2-88-79.9
		c-4.6-4.2-9.8-6.2-16-4.5c-5.7,1.4-10,5.8-11.3,11.5c-1.5,6.4,0.5,11.8,5.4,16.2c21,19,42,38.1,62.9,57.1L174.2,187.4z"/>
</g>
</svg>
