<?xml version="1.0" encoding="utf-8"?>
<!-- Generator: Adobe Illustrator 18.0.0, SVG Export Plug-In . SVG Version: 6.00 Build 0)  -->
<!DOCTYPE svg PUBLIC "-//W3C//DTD SVG 1.1//EN" "http://www.w3.org/Graphics/SVG/1.1/DTD/svg11.dtd">
<svg version="1.1" id="Warstwa_1" xmlns="http://www.w3.org/2000/svg" xmlns:xlink="http://www.w3.org/1999/xlink" x="0px" y="0px"
	 viewBox="0 0 30.8 43.2" enable-background="new 0 0 30.8 43.2" xml:space="preserve">
<g>
	<path d="M22.3,41.2H5.2C3.4,41.2,2,39.8,2,38V8.4c0-0.6-0.4-1-1-1s-1,0.4-1,1V38c0,2.9,2.3,5.2,5.2,5.2h17.1c0.6,0,1-0.4,1-1
		C23.3,41.6,22.9,41.2,22.3,41.2L22.3,41.2z"/>
	<path d="M30.8,5.2L30.8,5.2c0,0,0-0.1,0-0.2c0-0.1,0-0.1-0.1-0.2c0-0.1-0.1-0.1-0.1-0.2c0,0-0.1-0.1-0.1-0.1l-4.2-4.2
		C26.1,0.1,25.9,0,25.6,0H8.5C5.6,0,3.3,2.3,3.3,5.2v29.6c0,2.9,2.3,5.2,5.2,5.2h17.1c2.9,0,5.2-2.3,5.2-5.2V5.2L30.8,5.2z
		 M26.6,3.4l0.9,0.9l-0.9,0.1V3.4z M28.8,34.8c0,1.8-1.4,3.2-3.2,3.2H8.5c-1.8,0-3.2-1.4-3.2-3.2V5.2C5.3,3.4,6.7,2,8.5,2h16.1v3.5
		c0,0.6,0.4,1,1,1h0.1l3.1-0.2L28.8,34.8z"/>
	<path d="M17.8,26.9c-1.2,0-2.2,1-2.2,2.2c0,1.2,1,2.2,2.2,2.2c1.2,0,2.2-1,2.2-2.2C20.1,27.9,19.1,26.9,17.8,26.9 M17.6,29.1
		c0-0.1,0.1-0.3,0.2-0.3c0.1,0,0.3,0.1,0.3,0.2c0,0,0,0.1,0,0.1C18,29.4,17.6,29.4,17.6,29.1L17.6,29.1z"/>
	<path d="M17.8,8.7c-3.6,0-6.5,2.9-6.5,6.5c0,0.6,0.4,1,1,1c0.6,0,1-0.4,1-1c0-2.5,2-4.5,4.5-4.5c3.1,0,4.5,1.4,4.5,4.5
		c0,1.5-1.1,2.5-2.4,3.7c-1.5,1.4-3.2,3-3.2,5.6c0,0.6,0.4,1,1,1c0.6,0,1-0.4,1-1c0-1.8,1.2-2.9,2.5-4.1c1.4-1.3,3-2.8,3-5.2
		C24.3,11,22,8.7,17.8,8.7"/>
</g>
</svg>
