<?xml version="1.0" encoding="utf-8"?>
<!-- Generator: Adobe Illustrator 18.0.0, SVG Export Plug-In . SVG Version: 6.00 Build 0)  -->
<!DOCTYPE svg PUBLIC "-//W3C//DTD SVG 1.1//EN" "http://www.w3.org/Graphics/SVG/1.1/DTD/svg11.dtd">
<svg version="1.1" id="Warstwa_1" xmlns="http://www.w3.org/2000/svg" xmlns:xlink="http://www.w3.org/1999/xlink" x="0px" y="0px"
	 viewBox="0 0 13 21" enable-background="new 0 0 13 21" xml:space="preserve">
<path d="M9.7,1.3c0.2,0.1,0.4,0.3,0.6,0.5c0.2,0.2,0.4,0.5,0.6,0.8c0.2,0.3,0.3,0.6,0.5,1C11.5,4,11.5,4.4,11.5,5
	c0,1-0.2,1.7-0.6,2.3c-0.2,0.3-0.4,0.5-0.6,0.8C10,8.3,9.7,8.6,9.5,8.8C9.3,9,9.2,9.2,9,9.4c-0.2,0.2-0.2,0.5-0.2,0.8
	c0,0.3,0.1,0.5,0.2,0.7c0.1,0.2,0.3,0.3,0.4,0.5l0.9,0.8c0.6,0.5,1.1,1,1.5,1.6c0.4,0.6,0.6,1.3,0.6,2.3c0,1.3-0.6,2.5-1.7,3.5
	C9.5,20.4,7.8,21,5.6,21c-1.9,0-3.3-0.4-4.2-1.2C0.5,19,0,18.2,0,17.1c0-0.5,0.2-1.1,0.5-1.7c0.3-0.6,0.8-1.2,1.6-1.6
	c0.9-0.5,1.8-0.8,2.7-1c0.9-0.1,1.7-0.2,2.4-0.2c-0.2-0.3-0.4-0.5-0.5-0.8c-0.2-0.3-0.3-0.6-0.3-1c0-0.2,0-0.4,0.1-0.6
	C6.5,10,6.6,9.8,6.6,9.7C6.3,9.7,6,9.7,5.8,9.7c-1.4,0-2.5-0.5-3.3-1.4C1.7,7.5,1.3,6.5,1.3,5.4c0-1.3,0.6-2.6,1.7-3.7
	c0.8-0.6,1.6-1.1,2.4-1.3C6.2,0.2,6.9,0,7.6,0H13l-1.7,1.3H9.7z M7,9c0.7,0,1.3-0.3,1.8-0.8C9,7.9,9.1,7.5,9.2,7.1
	c0-0.4,0.1-0.7,0.1-0.9C9.3,5.1,9,4.1,8.4,3C8.2,2.5,7.9,2,7.4,1.7C7,1.4,6.5,1.2,6,1.2c-0.7,0-1.3,0.3-1.8,0.9
	c-0.4,0.6-0.6,1.3-0.6,2c0,1,0.3,2,0.8,3.1c0.3,0.5,0.6,0.9,1.1,1.3C5.9,8.8,6.4,9,7,9L7,9z M10.7,16.9c0-0.7-0.2-1.3-0.7-1.8
	c-0.5-0.5-1.2-1.1-2.2-1.8c-0.2,0-0.4,0-0.6,0c-0.1,0-0.5,0-1,0.1c-0.6,0.1-1.1,0.2-1.7,0.4c-0.1,0.1-0.3,0.1-0.6,0.2
	c-0.2,0.1-0.5,0.3-0.8,0.5c-0.2,0.2-0.5,0.5-0.6,0.8c-0.2,0.3-0.3,0.8-0.3,1.2c0,1,0.4,1.7,1.3,2.4c0.8,0.6,1.9,0.9,3.3,1
	c1.3,0,2.2-0.3,2.9-0.8C10.4,18.5,10.7,17.8,10.7,16.9L10.7,16.9z"/>
</svg>
