<?xml version="1.0" encoding="utf-8"?>
<!-- Generator: Adobe Illustrator 18.0.0, SVG Export Plug-In . SVG Version: 6.00 Build 0)  -->
<!DOCTYPE svg PUBLIC "-//W3C//DTD SVG 1.1//EN" "http://www.w3.org/Graphics/SVG/1.1/DTD/svg11.dtd">
<svg version="1.1" id="Warstwa_1" xmlns="http://www.w3.org/2000/svg" xmlns:xlink="http://www.w3.org/1999/xlink" x="0px" y="0px"
	 viewBox="0 0 24 24" enable-background="new 0 0 24 24" xml:space="preserve">
<path fill="#010101" d="M18.9,17.7c1.6-1.9,2.5-4.3,2.5-6.9C21.5,4.8,16.6,0,10.7,0S0,4.8,0,10.7s4.8,10.7,10.7,10.7
	c2.6,0,5.1-0.9,6.9-2.5l4.8,4.8c0.2,0.2,0.4,0.3,0.6,0.3s0.4-0.1,0.6-0.3c0.4-0.4,0.4-0.9,0-1.3L18.9,17.7z M10.7,19.7
	c-4.9,0-8.9-4-8.9-8.9s4-8.9,8.9-8.9s8.9,4,8.9,8.9S15.6,19.7,10.7,19.7"/>
</svg>
