<?xml version="1.0" encoding="utf-8"?>
<!-- Generator: Adobe Illustrator 18.0.0, SVG Export Plug-In . SVG Version: 6.00 Build 0)  -->
<!DOCTYPE svg PUBLIC "-//W3C//DTD SVG 1.1//EN" "http://www.w3.org/Graphics/SVG/1.1/DTD/svg11.dtd">
<svg version="1.1" id="Warstwa_1" xmlns="http://www.w3.org/2000/svg" xmlns:xlink="http://www.w3.org/1999/xlink" x="0px" y="0px"
	 viewBox="0 0 24 40" enable-background="new 0 0 24 40" xml:space="preserve">
<g>
	<path d="M5.1,17.3h4.3c0.4,0,0.8-0.4,0.8-0.8s-0.4-0.8-0.8-0.8H5.1c-0.4,0-0.8,0.4-0.8,0.8S4.6,17.3,5.1,17.3"/>
	<path d="M4.3,20.8c0,0.4,0.4,0.8,0.8,0.8h9.2c0.4,0,0.8-0.4,0.8-0.8c0-0.4-0.4-0.8-0.8-0.8H5.1C4.6,20,4.3,20.4,4.3,20.8"/>
	<path d="M4.4,25.1c0,0.4,0.4,0.8,0.8,0.8h13.1c0.4,0,0.8-0.4,0.8-0.8s-0.4-0.8-0.8-0.8H5.2C4.8,24.3,4.4,24.6,4.4,25.1"/>
	<path d="M18.3,28.5H5.2c-0.4,0-0.8,0.4-0.8,0.8c0,0.4,0.4,0.8,0.8,0.8h13.1c0.4,0,0.8-0.4,0.8-0.8C19.1,28.9,18.7,28.5,18.3,28.5"
		/>
	<path d="M18.1,33.2h-4.3c-0.4,0-0.8,0.4-0.8,0.8c0,0.4,0.4,0.8,0.8,0.8h4.3c0.4,0,0.8-0.4,0.8-0.8C18.9,33.6,18.6,33.2,18.1,33.2"
		/>
	<path d="M19.7,7.6l-0.6-0.2V3.6c0.3,0.1,0.6,0.2,0.8,0.4c0.4,0.2,0.7,0.6,0.9,1c0.1,0.3,0.5,0.5,0.8,0.4c0.4-0.2,0.6-0.6,0.4-1
		c-0.6-1.2-1.6-1.8-2.9-2.1V0.9c0-0.5-0.3-0.9-0.7-0.9s-0.7,0.4-0.7,0.9v1.3C16.8,2.3,16,2.5,15.3,3c-0.7,0.6-1.1,1.3-1.1,2.3
		c0,0.6,0.1,1.1,0.4,1.6c0.3,0.5,0.6,0.8,1,1c0.4,0.2,0.9,0.4,1.5,0.6l0.6,0.2V13c-1.2-0.2-2.1-0.8-2.6-1.9
		c-0.1-0.2-0.4-0.4-0.6-0.3c-0.4,0.1-0.7,0.6-0.5,1c0.8,1.5,2,2.3,3.7,2.5v2.1c0,0.5,0.3,0.9,0.7,0.9s0.7-0.4,0.7-0.9v-2.1
		c1-0.1,1.9-0.4,2.5-1c0.7-0.7,1.1-1.5,1.1-2.5C22.7,9.1,21.7,8.1,19.7,7.6 M17.6,7.1c-1.3-0.3-1.9-0.9-1.9-1.7
		c0-0.6,0.2-1.1,0.7-1.4c0.4-0.3,0.8-0.4,1.3-0.5v3.7L17.6,7.1z M20.5,12.5c-0.3,0.3-0.8,0.5-1.4,0.5V9l0.3,0.1
		c0.5,0.1,0.9,0.3,1.2,0.6c0.4,0.3,0.5,0.7,0.5,1.2C21.2,11.6,20.9,12.1,20.5,12.5"/>
	<path d="M21.9,18.1V36c0,1-0.8,1.9-1.9,1.9H4c-1,0-1.9-0.8-1.9-1.9V4c0-1,0.8-1.9,1.9-1.9h7.7V0H4C1.8,0,0,1.8,0,4v32
		c0,2.2,1.8,4,4,4h16c2.2,0,4-1.8,4-4V18.1H21.9z"/>
</g>
</svg>
