<?xml version="1.0" encoding="utf-8"?>
<!-- Generator: Adobe Illustrator 18.0.0, SVG Export Plug-In . SVG Version: 6.00 Build 0)  -->
<!DOCTYPE svg PUBLIC "-//W3C//DTD SVG 1.1//EN" "http://www.w3.org/Graphics/SVG/1.1/DTD/svg11.dtd">
<svg version="1.1" id="Warstwa_1" xmlns="http://www.w3.org/2000/svg" xmlns:xlink="http://www.w3.org/1999/xlink" x="0px" y="0px"
	 viewBox="0 0 59.9 60" enable-background="new 0 0 59.9 60" xml:space="preserve">
<g>
	<g>
		<path d="M39.9,49c0,0-0.1,0-0.1,0c-6.9-0.7-11.4-5.1-11.5-5.3c-0.4-0.4-0.4-1,0-1.4c0.4-0.4,1-0.4,1.4,0c0,0,4.2,4.1,10.3,4.7
			c0.5,0.1,0.9,0.5,0.9,1.1C40.9,48.6,40.4,49,39.9,49z"/>
	</g>
	<g>
		<path d="M18,33c-0.2,0-0.4-0.1-0.6-0.2c-0.2-0.2-5.7-4.7-6.4-11.7c-0.1-0.5,0.3-1,0.9-1.1c0.6-0.1,1,0.3,1.1,0.9
			c0.6,6.1,5.7,10.3,5.7,10.3c0.4,0.3,0.5,1,0.1,1.4C18.6,32.9,18.3,33,18,33z"/>
	</g>
	<g>
		<path d="M39.6,60C39.6,60,39.6,60,39.6,60c-2.6,0-5.4-0.8-8.2-2.3c-1.7-0.9-3.3-2.2-4.9-3.8L6.1,33.3c-1.9-1.9-3.4-4-4.4-6.1
			C-1.3,20.8-0.3,15,4.7,10l2.5-2.5c0.9-0.9,2.2-1.4,3.5-1.4c0.8,0,1.6,0.2,2.3,0.6c3.8,2,7.9,9,8.1,9.3c0.7,1.3,1,2.6,0.7,3.7
			c-0.2,0.8-0.8,1.5-1.5,2c-1.2,1-2.6,2.3-2.9,2.6c-1.6,2.4-1.4,4.2,0.6,6.3L29.5,42c2.1,2.1,3.9,2.2,6.3,0.6
			c0.3-0.2,1.6-1.6,2.6-2.9c0.6-1.1,1.7-1.7,3-1.7c0.9,0,1.8,0.3,2.7,0.8c0.3,0.2,7.3,4.3,9.3,8.1c1,1.9,0.7,4.3-0.9,5.8L50,55.3
			C46.8,58.4,43.4,60,39.6,60z M10.7,8.1c-0.8,0-1.5,0.3-2.1,0.9l-2.5,2.5c-4.4,4.4-5.3,9.3-2.7,14.9c0.9,1.9,2.2,3.8,4,5.6L28,52.5
			c1.4,1.4,2.9,2.6,4.4,3.4c2.5,1.4,4.9,2.1,7.2,2.1l0,0c3.2,0,6.2-1.4,8.9-4.1l2.5-2.5c0.9-0.9,1.1-2.3,0.5-3.4
			c-1.7-3.3-8.5-7.3-8.5-7.3c-0.6-0.3-1.2-0.5-1.7-0.5c-0.6,0-1,0.2-1.3,0.7L39.9,41c-0.7,0.9-2.4,2.9-3.1,3.3
			c-3.2,2.1-6.1,1.8-8.8-0.9L16.6,31.9c-2.7-2.7-3-5.7-0.9-8.8c0.4-0.6,2.5-2.3,3.3-3.1l0.1-0.1c0.4-0.2,0.6-0.5,0.7-0.8
			c0.2-0.6,0-1.4-0.5-2.2c0-0.1-4-6.8-7.3-8.5C11.7,8.2,11.2,8.1,10.7,8.1z"/>
	</g>
	<g>
		<path d="M26.9,34c-0.3,0-0.5-0.1-0.7-0.3c-0.3-0.2-0.4-0.6-0.3-1l1.9-8c-1.2-2.4-1.9-5.1-1.9-7.8c0-9.4,7.6-17,17-17s17,7.6,17,17
			s-7.6,17-17,17c-2.9,0-5.8-0.8-8.3-2.2L27.2,34C27.1,34,27,34,26.9,34z M34.8,29.7c0.2,0,0.4,0,0.5,0.1c2.3,1.4,5,2.1,7.7,2.1
			c8.3,0,15-6.7,15-15s-6.7-15-15-15s-15,6.7-15,15c0,2.5,0.6,5,1.8,7.2c0.1,0.2,0.2,0.5,0.1,0.7l-1.6,6.7l6.2-1.8
			C34.6,29.8,34.7,29.7,34.8,29.7z"/>
	</g>
	<g>
		<path d="M49.9,12h-14c-0.6,0-1-0.4-1-1s0.4-1,1-1h14c0.6,0,1,0.4,1,1S50.5,12,49.9,12z"/>
	</g>
	<g>
		<path d="M51.9,18h-18c-0.6,0-1-0.4-1-1s0.4-1,1-1h18c0.6,0,1,0.4,1,1S52.5,18,51.9,18z"/>
	</g>
	<g>
		<path d="M49.9,24h-14c-0.6,0-1-0.4-1-1s0.4-1,1-1h14c0.6,0,1,0.4,1,1S50.5,24,49.9,24z"/>
	</g>
</g>
</svg>
