<?xml version="1.0" encoding="utf-8"?>
<!-- Generator: Adobe Illustrator 18.0.0, SVG Export Plug-In . SVG Version: 6.00 Build 0)  -->
<!DOCTYPE svg PUBLIC "-//W3C//DTD SVG 1.1//EN" "http://www.w3.org/Graphics/SVG/1.1/DTD/svg11.dtd">
<svg version="1.1" id="Warstwa_1" xmlns="http://www.w3.org/2000/svg" xmlns:xlink="http://www.w3.org/1999/xlink" x="0px" y="0px"
	 viewBox="0 0 50 84" enable-background="new 0 0 50 84" xml:space="preserve">
<g>
	<path d="M5,0C2.2,0,0,2.2,0,5v3h50V5c0-2.8-2.2-5-5-5H5z M0,68h50V12H0V68z M0,72v7c0,2.8,2.2,5,5,5h40c2.8,0,5-2.2,5-5v-7H0z
		 M25,75c1.7,0,3,1.3,3,3s-1.3,3-3,3c-1.7,0-3-1.3-3-3S23.3,75,25,75"/>
</g>
</svg>
