<?xml version="1.0" encoding="utf-8"?>
<!-- Generator: Adobe Illustrator 18.0.0, SVG Export Plug-In . SVG Version: 6.00 Build 0)  -->
<!DOCTYPE svg PUBLIC "-//W3C//DTD SVG 1.1//EN" "http://www.w3.org/Graphics/SVG/1.1/DTD/svg11.dtd">
<svg version="1.1" id="Warstwa_1" xmlns="http://www.w3.org/2000/svg" xmlns:xlink="http://www.w3.org/1999/xlink" x="0px" y="0px"
	 viewBox="0 0 24 24" enable-background="new 0 0 24 24" xml:space="preserve">
<g>
	<path fill="#010101" d="M12,24C5.4,24,0,18.6,0,12c0-2,0.5-4,1.5-5.8c0.3-0.5,0.9-0.6,1.4-0.3c0.5,0.3,0.6,0.8,0.4,1.3
		C2.4,8.7,2,10.4,2,12c0,5.5,4.5,10,10,10s10-4.5,10-10c0-1.7-0.4-3.4-1.3-4.9c-0.3-0.5-0.1-1.1,0.4-1.4c0.5-0.2,1.1-0.1,1.3,0.4
		C23.5,7.9,24,10,24,12C24,18.6,18.6,24,12,24"/>
	<path fill="#010101" d="M12,13.2c-0.6,0-1-0.4-1-1V1c0-0.6,0.5-1,1-1s1,0.5,1,1v11.2C13,12.8,12.6,13.2,12,13.2L12,13.2z"/>
</g>
</svg>
