<?xml version="1.0" encoding="utf-8"?>
<!-- Generator: Adobe Illustrator 18.0.0, SVG Export Plug-In . SVG Version: 6.00 Build 0)  -->
<!DOCTYPE svg PUBLIC "-//W3C//DTD SVG 1.1//EN" "http://www.w3.org/Graphics/SVG/1.1/DTD/svg11.dtd">
<svg version="1.1" id="Warstwa_1" xmlns="http://www.w3.org/2000/svg" xmlns:xlink="http://www.w3.org/1999/xlink" x="0px" y="0px"
	 viewBox="0 0 29 21" enable-background="new 0 0 29 21" xml:space="preserve">
<path fill-rule="evenodd" clip-rule="evenodd" d="M0,14.9c0,0,5.8,5,10.3,0c0,0-0.8,0-1.3-0.4c-0.4-0.3-0.6-1.1-0.6-1.1
	s1.4-0.8,0.9-1.4c0,0-3.2-0.1-3.3-2L7.9,9c0,0-0.7,0.4-1.4,0c0,0-1.9-1.3-1.5-2.7l1.6-0.2c0,0-2.7-1.9-2-3.4c0,0,0.3-1.3,9.2,4.7
	c0,0,1.6-5.6,4.5-6.9c0,0,0.5,0.2,0.5,0.5c0,0,0.4-0.9,1-1c0,0,0.7,0.6,0.2,0.9c0,0,1.1-0.8,1.7-0.4c0,0,0,0.7-1.6,1.5
	c0,0,4.1,0.2,5.6,5.8c0,0,1.8,0.6,3.5-0.4c0,0,0.1,0.8-2.5,2c0,0,0.2,0.4,2.4,0.1c0,0,0,1.6-3.5,1.6c0,0-2.9,8.5-10.1,9.7
	C6.8,22.1,0.7,17.8,0,14.9z"/>
</svg>
