<?xml version="1.0" encoding="utf-8"?>
<!-- Generator: Adobe Illustrator 18.0.0, SVG Export Plug-In . SVG Version: 6.00 Build 0)  -->
<!DOCTYPE svg PUBLIC "-//W3C//DTD SVG 1.1//EN" "http://www.w3.org/Graphics/SVG/1.1/DTD/svg11.dtd">
<svg version="1.1" id="Warstwa_1" xmlns="http://www.w3.org/2000/svg" xmlns:xlink="http://www.w3.org/1999/xlink" x="0px" y="0px"
	 viewBox="0 0 23 22" enable-background="new 0 0 23 22" xml:space="preserve">
<path d="M18.6,15.7c0-0.1-0.1-0.1-0.2-0.1c-0.1,0-0.2,0-0.2,0.1c0,0.1,0-0.1,0,0.2v0.4h0.5v-0.4C18.6,15.6,18.6,15.8,18.6,15.7z
	 M7.4,6.8c0,0.7,0,1.2,0.1,1.5C7.6,8.6,7.8,8.9,8,9.1c0.2,0.2,0.5,0.4,0.9,0.5c0.4,0.1,1.1,0.2,1.7,0.2c0.5,0,0.7-0.1,1.1-0.2
	C12,9.5,12.3,9.3,12.5,9c0.2-0.3,0.4-0.6,0.5-0.9c0.1-0.3,0.1-0.9,0.1-1.6V4.6c0-0.6,0-1-0.1-1.3c-0.1-0.3-0.2-0.5-0.4-0.8
	C12.3,2.3,12,2,11.6,1.9c-0.4-0.2-0.7-0.2-1.2-0.2C9.8,1.6,8.9,1.8,8.5,2C8.1,2.3,7.8,2.6,7.7,3C7.5,3.4,7.4,4,7.4,4.7V6.8z
	 M9.9,4.1c0-0.4,0-0.7,0.1-0.8c0-0.1,0.1-0.2,0.3-0.2c0.1,0,0.3,0.1,0.4,0.2c0,0.1,0.1,0.4,0.1,0.8v3.2c0,0.3,0,0.6-0.1,0.7
	c0,0.1-0.2,0.2-0.4,0.2C10.1,8.1,10,8.1,9.9,8c0-0.1-0.1-0.4-0.1-0.7V4.1z M14.2,9.1c0.1,0.2,0.3,0.4,0.5,0.5s0.6,0.1,1,0.1
	c0.3,0,0.6,0,0.9-0.1c0.2-0.1,0.5-0.3,0.6-0.6l0,0.7h2.5V1.6h-2.4v5.5c0,0.6,0,1-0.1,1.1c0,0.1-0.1,0.2-0.3,0.2
	c-0.2,0-0.4-0.1-0.4-0.2c0-0.1-0.1-0.5-0.1-1.1V1.6H14v5.5c0,0.7,0,1.1,0,1.4C14,8.7,14.1,8.9,14.2,9.1z M13.8,15.7
	c0-0.1-0.3-0.1-0.4-0.1c-0.1,0-0.2,0-0.2,0.1c0,0.1,0-0.1,0,0.2v2.7c0,0.3,0,0.5,0.1,0.6c0,0.1,0.1,0.1,0.2,0.1c0.1,0,0.4,0,0.4-0.1
	c0-0.1,0.1-0.3,0.1-0.7v-2.6C13.9,15.6,13.9,15.8,13.8,15.7z M3.2,9.7h2.4V6.2l1.8-6.3L5.1,0C4.8,1.8,4.6,3.1,4.4,4.2
	c0-0.7-0.3-2.3-0.6-4.2H1.5l1.8,6.2V9.7z M18.9,11.4H4.1c-2.3,0-4.1,1.8-4.1,4.1v2.4c0,2.2,1.8,4.1,4.1,4.1h14.8
	c2.3,0,4.1-1.8,4.1-4.1v-2.4C23,13.2,21.2,11.4,18.9,11.4z M5.7,14.6H5v5.7H3.3v-5.7H2.5V13h3.2V14.6z M10.7,20.3H8.9l0-0.5
	c-0.1,0.2-0.3,0.3-0.5,0.4c-0.2,0.1-0.4,0.1-0.6,0.1c-0.3,0-0.5,0-0.7-0.1C7,20.2,6.8,20,6.7,19.9c-0.1-0.2-0.1-0.3-0.2-0.5
	c0-0.2,0-0.5,0-1v-3.8h1.6v3.8c0,0.5,0,0.7,0,0.8c0,0.1,0.3,0.1,0.4,0.1c0.1,0,0.3,0,0.3-0.1c0-0.1,0-0.4,0-0.8v-3.7h1.7V20.3z
	 M15.7,18.7c0,0.4,0,0.7-0.1,0.9s-0.2,0.4-0.4,0.5c-0.2,0.2-0.5,0.2-0.8,0.2c-0.2,0-0.4,0-0.6-0.1c-0.2-0.1-0.6-0.2-0.7-0.4L13,20.3
	h-1.5V13h1.6v2.1c0.1-0.2,0.5-0.3,0.7-0.4c0.2-0.1,0.4-0.1,0.6-0.1c0.2,0,0.5,0,0.6,0.1c0.2,0.1,0.3,0.2,0.4,0.3
	c0.1,0.1,0.2,0.3,0.2,0.4c0,0.1,0,0,0,0.4V18.7z M20.4,17.1h-2.3v1.7c0,0.3,0,0.4,0.1,0.5c0,0.1,0.1,0.1,0.2,0.1
	c0.1,0,0.2-0.1,0.3-0.2c0-0.1,0.1-0.3,0.1-0.6v-0.8h1.7v0.4c0,0.4,0,0.6-0.1,0.8c0,0.2-0.2,0.4-0.3,0.6c-0.2,0.2-0.4,0.4-0.6,0.5
	c-0.3,0.1-0.6,0.2-1,0.2c-0.4,0-0.6-0.1-0.9-0.2c-0.3-0.1-0.6-0.3-0.7-0.4c-0.2-0.2-0.3-0.4-0.3-0.6c-0.1-0.2-0.1-0.6-0.1-1v-1.9
	c0-0.5,0.1-0.5,0.2-0.8c0.1-0.3,0.4-0.5,0.7-0.7c0.3-0.2,0.6-0.2,1-0.2c0.5,0,0.9,0.1,1.2,0.3c0.3,0.2,0.6,0.4,0.7,0.7
	c0.1,0.3,0.2,0.5,0.2,1.1V17.1z"/>
</svg>
