<?xml version="1.0" encoding="utf-8"?>
<!-- Generator: Adobe Illustrator 17.0.0, SVG Export Plug-In . SVG Version: 6.00 Build 0)  -->
<!DOCTYPE svg PUBLIC "-//W3C//DTD SVG 1.1//EN" "http://www.w3.org/Graphics/SVG/1.1/DTD/svg11.dtd">
<svg version="1.1" id="Layer_1" xmlns="http://www.w3.org/2000/svg" xmlns:xlink="http://www.w3.org/1999/xlink" x="0px" y="0px"
	 width="297.456px" height="125.647px" viewBox="0 0 297.456 125.647" enable-background="new 0 0 297.456 125.647"
	 xml:space="preserve">
<g>
	<path fill="#F58220" d="M114.898,91.671c0-2.028,1.248-3.38,3.328-3.38h17.159c2.133,0,3.536,1.405,3.536,3.328
		c0,1.873-1.404,3.276-3.536,3.276h-12.532c-0.208,0-0.311,0.104-0.311,0.311v7.02c0,0.208,0.104,0.311,0.311,0.311h10.036
		c2.132,0,3.484,1.352,3.484,3.275c0,1.924-1.352,3.276-3.484,3.276h-10.036c-0.208,0-0.311,0.104-0.311,0.311v7.332
		c0,0.208,0.104,0.312,0.311,0.312h12.532c2.133,0,3.536,1.404,3.536,3.275c0,1.924-1.404,3.328-3.536,3.328h-17.159
		c-2.08,0-3.328-1.352-3.328-3.38C114.898,120.269,114.898,91.671,114.898,91.671z"/>
	<path fill="#F58220" d="M147.4,92.555c0-2.808,1.664-4.575,4.263-4.575c2.184,0,3.64,1.3,5.045,3.744l10.815,19.292h0.209V91.671
		c0-2.34,1.404-3.692,3.483-3.692c2.08,0,3.484,1.352,3.484,3.692v27.716c0,2.808-1.664,4.576-4.263,4.576
		c-2.185,0-3.641-1.3-5.045-3.744l-10.816-19.24h-0.208v19.292c0,2.34-1.404,3.692-3.484,3.692c-2.08,0-3.483-1.351-3.483-3.692
		L147.4,92.555L147.4,92.555z"/>
	<path fill="#F58220" d="M184.583,91.671c0-2.028,1.248-3.38,3.328-3.38h17.159c2.133,0,3.536,1.405,3.536,3.328
		c0,1.873-1.404,3.276-3.536,3.276h-12.532c-0.208,0-0.311,0.104-0.311,0.311v7.02c0,0.208,0.104,0.311,0.311,0.311h10.036
		c2.132,0,3.484,1.352,3.484,3.275c0,1.924-1.352,3.276-3.484,3.276h-10.036c-0.208,0-0.311,0.104-0.311,0.311v7.332
		c0,0.208,0.104,0.312,0.311,0.312h12.532c2.133,0,3.536,1.404,3.536,3.275c0,1.924-1.404,3.328-3.536,3.328H187.91
		c-2.081,0-3.328-1.352-3.328-3.38V91.671z"/>
	<path fill="#F58220" d="M236.169,121.571l-5.928-11.388h-5.2c-0.208,0-0.311,0.104-0.311,0.311v9.412
		c0,2.444-1.56,4.056-3.796,4.056s-3.848-1.612-3.848-4.056V91.67c0-2.028,1.248-3.38,3.328-3.38h11.231
		c7.28,0,12.065,4.524,12.065,10.972c0,4.316-2.184,7.748-5.824,9.568l5.148,9.361c0.364,0.676,0.519,1.404,0.519,2.132
		c0,1.976-1.352,3.64-3.64,3.64C238.353,123.962,237.053,123.235,236.169,121.571z M236.065,99.315c0-2.704-1.872-4.42-4.785-4.42
		h-6.24c-0.208,0-0.311,0.104-0.311,0.311v8.164c0,0.208,0.104,0.311,0.311,0.311h6.24
		C234.193,103.683,236.065,101.967,236.065,99.315z"/>
	<path fill="#F58220" d="M251.457,105.971c0-5.2,0.209-7.177,0.989-9.672c1.82-5.72,6.708-8.581,13.001-8.581
		c5.719,0,9.671,2.34,11.544,5.513c0.416,0.728,0.677,1.456,0.677,2.288c0,2.028-1.56,3.433-3.484,3.433
		c-1.3,0-2.34-0.416-3.38-1.873c-1.352-1.873-3.069-2.6-5.356-2.6c-3.016,0-4.888,1.508-5.668,3.952
		c-0.416,1.3-0.572,2.964-0.572,7.54c0,4.575,0.156,6.292,0.572,7.592c0.78,2.392,2.704,3.899,5.772,3.899
		c2.704,0,4.94-1.404,5.668-3.64c0.311-0.936,0.416-2.132,0.416-3.484c0-0.208-0.104-0.311-0.311-0.311h-2.393
		c-1.976,0-3.224-1.196-3.224-3.016c0-1.82,1.248-3.016,3.224-3.016h7.279c1.924,0,3.016,1.091,3.016,3.016v0.364
		c0,3.12-0.26,6.032-0.884,8.008c-1.82,5.668-6.604,8.84-12.896,8.84s-11.181-2.86-13.001-8.581
		C251.666,113.147,251.457,111.171,251.457,105.971z"/>
	<path fill="#F58220" d="M287.6,91.826c0-2.288,1.82-4.108,4.108-4.108c2.289,0,4.108,1.82,4.108,4.108s-1.82,4.108-4.108,4.108
		C289.421,95.935,287.6,94.115,287.6,91.826z M288.069,120.115v-18.096c0-2.392,1.508-3.848,3.64-3.848
		c2.081,0,3.64,1.456,3.64,3.848v18.096c0,2.392-1.559,3.848-3.64,3.848C289.577,123.962,288.069,122.507,288.069,120.115z"/>
</g>
<path fill="#F58220" d="M226.913,68.051c1.034,2.323-0.2,4.224-2.743,4.224h-7.776c-2.543,0-5.477-1.897-6.519-4.217l-11.57-25.732
	c-1.045-2.319-2.767-2.327-3.831-0.017l-11.868,25.766c-1.063,2.309-4.015,4.199-6.559,4.199h-8.569
	c-2.543,0-3.743-1.884-2.666-4.188l29.85-63.896c1.078-2.305,2.804-2.289,3.839,0.034L226.913,68.051z"/>
<path fill="#040303" d="M34.825,68.046c-1.035,2.323-2.762,2.338-3.839,0.035L1.147,4.19C0.07,1.885,1.27,0,3.813,0h8.637
	c2.543,0,5.486,1.894,6.538,4.21l11.711,25.749c1.053,2.314,2.775,2.312,3.824-0.003L46.196,4.212C47.245,1.896,50.186,0,52.728,0
	h7.777c2.543,0,3.778,1.901,2.742,4.226L34.825,68.046z"/>
<path fill="#040303" d="M80.187,72.27c-2.544,0-4.625-2.08-4.625-4.624V4.624c0-2.543,2.08-4.624,4.625-4.624h7.068
	c2.544,0,4.625,2.081,4.625,4.624v63.022c0,2.544-2.08,4.624-4.625,4.624C87.255,72.27,80.187,72.27,80.187,72.27z"/>
<path fill="#040303" d="M148.005,14.554c-2.543,0-4.624,2.08-4.624,4.624v48.469c0,2.543-2.079,4.624-4.624,4.624h-7.074
	c-2.544,0-4.624-2.081-4.624-4.624V19.178c0-2.544-2.081-4.624-4.624-4.624h-12.588c-2.543,0-4.624-2.08-4.624-4.624V4.625
	c0-2.544,2.08-4.624,4.624-4.624h50.745c2.544,0,4.624,2.08,4.624,4.624V9.93c0,2.544-2.079,4.624-4.624,4.624H148.005z"/>
<path fill="#040303" d="M245.223,72.27c-2.544,0-4.624-2.08-4.624-4.624V4.624c0-2.543,2.08-4.624,4.624-4.624h7.073
	c2.542,0,4.622,2.081,4.622,4.624v48.474c0,2.544,2.083,4.624,4.624,4.624h28.667c2.543,0,4.624,2.08,4.624,4.624v5.3
	c0,2.544-2.081,4.624-4.624,4.624C290.208,72.27,245.223,72.27,245.223,72.27z"/>
</svg>
