<svg xmlns="http://www.w3.org/2000/svg" width="297.456" height="125.647" viewBox="0 0 297.456 125.647"><path d="M114.898 91.671c0-2.028 1.248-3.38 3.328-3.38h17.159c2.133 0 3.536 1.405 3.536 3.328 0 1.873-1.404 3.276-3.536 3.276h-12.532c-.208 0-.311.104-.311.311v7.02c0 .208.104.311.311.311h10.036c2.132 0 3.484 1.352 3.484 3.275 0 1.924-1.352 3.276-3.484 3.276h-10.036c-.208 0-.311.104-.311.311v7.332c0 .208.104.312.311.312h12.532c2.133 0 3.536 1.404 3.536 3.275 0 1.924-1.404 3.328-3.536 3.328h-17.159c-2.08 0-3.328-1.352-3.328-3.38V91.671zm32.502.884c0-2.808 1.664-4.575 4.263-4.575 2.184 0 3.64 1.3 5.045 3.744l10.815 19.292h.209V91.671c0-2.34 1.404-3.692 3.483-3.692 2.08 0 3.484 1.352 3.484 3.692v27.716c0 2.808-1.664 4.576-4.263 4.576-2.185 0-3.641-1.3-5.045-3.744l-10.816-19.24h-.208v19.292c0 2.34-1.404 3.692-3.484 3.692s-3.483-1.351-3.483-3.692V92.555zm37.183-.884c0-2.028 1.248-3.38 3.328-3.38h17.159c2.133 0 3.536 1.405 3.536 3.328 0 1.873-1.404 3.276-3.536 3.276h-12.532c-.208 0-.311.104-.311.311v7.02c0 .208.104.311.311.311h10.036c2.132 0 3.484 1.352 3.484 3.275 0 1.924-1.352 3.276-3.484 3.276h-10.036c-.208 0-.311.104-.311.311v7.332c0 .208.104.312.311.312h12.532c2.133 0 3.536 1.404 3.536 3.275 0 1.924-1.404 3.328-3.536 3.328h-17.16c-2.081 0-3.328-1.352-3.328-3.38V91.671zm51.586 29.9l-5.928-11.388h-5.2c-.208 0-.311.104-.311.311v9.412c0 2.444-1.56 4.056-3.796 4.056s-3.848-1.612-3.848-4.056V91.67c0-2.028 1.248-3.38 3.328-3.38h11.231c7.28 0 12.065 4.524 12.065 10.972 0 4.316-2.184 7.748-5.824 9.568l5.148 9.361c.364.676.519 1.404.519 2.132 0 1.976-1.352 3.64-3.64 3.64-1.56-.001-2.86-.728-3.744-2.392zm-.104-22.256c0-2.704-1.872-4.42-4.785-4.42h-6.24c-.208 0-.311.104-.311.311v8.164c0 .208.104.311.311.311h6.24c2.913.002 4.785-1.714 4.785-4.366zm15.392 6.656c0-5.2.209-7.177.989-9.672 1.82-5.72 6.708-8.581 13.001-8.581 5.719 0 9.671 2.34 11.544 5.513.416.728.677 1.456.677 2.288 0 2.028-1.56 3.433-3.484 3.433-1.3 0-2.34-.416-3.38-1.873-1.352-1.873-3.069-2.6-5.356-2.6-3.016 0-4.888 1.508-5.668 3.952-.416 1.3-.572 2.964-.572 7.54 0 4.575.156 6.292.572 7.592.78 2.392 2.704 3.899 5.772 3.899 2.704 0 4.94-1.404 5.668-3.64.311-.936.416-2.132.416-3.484 0-.208-.104-.311-.311-.311h-2.393c-1.976 0-3.224-1.196-3.224-3.016s1.248-3.016 3.224-3.016h7.279c1.924 0 3.016 1.091 3.016 3.016v.364c0 3.12-.26 6.032-.884 8.008-1.82 5.668-6.604 8.84-12.896 8.84s-11.181-2.86-13.001-8.581c-.78-2.495-.989-4.471-.989-9.671zM287.6 91.826a4.084 4.084 0 0 1 4.108-4.108c2.289 0 4.108 1.82 4.108 4.108s-1.82 4.108-4.108 4.108a4.083 4.083 0 0 1-4.108-4.108zm.469 28.289v-18.096c0-2.392 1.508-3.848 3.64-3.848 2.081 0 3.64 1.456 3.64 3.848v18.096c0 2.392-1.559 3.848-3.64 3.848-2.132-.001-3.64-1.456-3.64-3.848zm-61.156-52.064c1.034 2.323-.2 4.224-2.743 4.224h-7.776c-2.543 0-5.477-1.897-6.519-4.217l-11.57-25.732c-1.045-2.319-2.767-2.327-3.831-.017l-11.868 25.766c-1.063 2.309-4.015 4.199-6.559 4.199h-8.569c-2.543 0-3.743-1.884-2.666-4.188l29.85-63.896c1.078-2.305 2.804-2.289 3.839.034l28.412 63.827z" fill="#F58220"/><path fill="#040303" d="M34.825 68.046c-1.035 2.323-2.762 2.338-3.839.035L1.147 4.19C.07 1.885 1.27 0 3.813 0h8.637c2.543 0 5.486 1.894 6.538 4.21l11.711 25.749c1.053 2.314 2.775 2.312 3.824-.003L46.196 4.212C47.245 1.896 50.186 0 52.728 0h7.777c2.543 0 3.778 1.901 2.742 4.226l-28.422 63.82zm45.362 4.224a4.637 4.637 0 0 1-4.625-4.624V4.624A4.637 4.637 0 0 1 80.187 0h7.068a4.638 4.638 0 0 1 4.625 4.624v63.022a4.637 4.637 0 0 1-4.625 4.624h-7.068zm67.818-57.716a4.637 4.637 0 0 0-4.624 4.624v48.469a4.637 4.637 0 0 1-4.624 4.624h-7.074a4.637 4.637 0 0 1-4.624-4.624V19.178a4.637 4.637 0 0 0-4.624-4.624h-12.588a4.637 4.637 0 0 1-4.624-4.624V4.625a4.637 4.637 0 0 1 4.624-4.624h50.745a4.637 4.637 0 0 1 4.624 4.624V9.93a4.636 4.636 0 0 1-4.624 4.624h-12.587zm97.218 57.716a4.637 4.637 0 0 1-4.624-4.624V4.624A4.637 4.637 0 0 1 245.223 0h7.073a4.637 4.637 0 0 1 4.622 4.624v48.474a4.638 4.638 0 0 0 4.624 4.624h28.667a4.637 4.637 0 0 1 4.624 4.624v5.3a4.637 4.637 0 0 1-4.624 4.624h-44.986z"/></svg>