<svg xmlns="http://www.w3.org/2000/svg" viewBox="0 0 74.8 96.7"><path d="M51.6 82c0 .7.6 1.3 1.3 1.3.7 0 1.3-.6 1.3-1.3v-.8c2.3-.6 3.9-2.6 3.9-5.1s-1.7-4.5-3.9-5.1v-5c1.1.4 2 1.2 2.4 1.6.5.5 1.3.5 1.9 0 .5-.5.5-1.4 0-1.9-.2-.2-2-2-4.3-2.5v-.8c0-.7-.6-1.3-1.3-1.3-.7 0-1.3.6-1.3 1.3v.8c-2.2.6-3.8 2.6-3.8 5s1.6 4.4 3.8 5v4.9c-1-.5-2-1.5-2.3-1.9-.5-.6-1.3-.6-1.9-.1-.6.5-.6 1.3-.1 1.9.2.3 2.1 2.3 4.3 3v1zm3.9-5.8c0 .9-.5 1.8-1.3 2.2V74c.8.4 1.3 1.3 1.3 2.2m-5.1-7.8c0-.9.5-1.7 1.2-2.2v4.3c-.7-.4-1.2-1.2-1.2-2.1M36.4 82c0 .7.6 1.3 1.3 1.3.7 0 1.3-.6 1.3-1.3v-.8c2.3-.6 3.9-2.6 3.9-5.1S41.2 71.6 39 71v-5c1.1.4 2 1.2 2.4 1.6.5.5 1.3.5 1.9 0 .5-.5.5-1.4 0-1.9-.2-.2-2-2-4.3-2.5v-.8c0-.7-.6-1.3-1.3-1.3-.7 0-1.3.6-1.3 1.3v.8c-2.2.6-3.8 2.6-3.8 5s1.6 4.4 3.8 5v4.9c-1-.5-2-1.5-2.3-1.9-.5-.6-1.3-.6-1.9-.1-.6.5-.6 1.3-.1 1.9.2.3 2.1 2.3 4.3 3v1zm3.9-5.8c0 .9-.5 1.8-1.3 2.2V74c.8.4 1.3 1.3 1.3 2.2m-5.1-7.8c0-.9.5-1.7 1.2-2.2v4.3c-.7-.4-1.2-1.2-1.2-2.1M20.6 82c0 .7.6 1.3 1.3 1.3.7 0 1.3-.6 1.3-1.3v-.8c2.3-.6 3.9-2.6 3.9-5.1s-1.7-4.5-3.9-5.1v-5c1.1.4 2 1.2 2.4 1.6.5.5 1.3.5 1.9 0 .5-.5.5-1.4 0-1.9-.2-.2-2-2-4.3-2.5v-.8c0-.7-.6-1.3-1.3-1.3-.7 0-1.3.6-1.3 1.3v.8c-2.2.6-3.8 2.6-3.8 5s1.6 4.4 3.8 5v4.9c-1-.5-2-1.5-2.3-1.9-.5-.6-1.3-.6-1.9-.1-.6.5-.6 1.3-.1 1.9.2.3 2.1 2.3 4.3 3v1zm3.9-5.8c0 .9-.5 1.8-1.3 2.2V74c.8.4 1.3 1.3 1.3 2.2m-5.1-7.8c0-.9.5-1.7 1.2-2.2v4.3c-.7-.4-1.2-1.2-1.2-2.1"/><path d="M72.5 96.7H2.2c-1.2 0-2.2-1-2.2-2.2V2.2C0 1 1 0 2.2 0h70.4c1.2 0 2.2 1 2.2 2.2v92.3c-.1 1.2-1.1 2.2-2.3 2.2M4.4 92.3h65.9V4.4H4.4v87.9z"/><path d="M23.5 23.2h-5c-1.2 0-2.2-1-2.2-2.2s1-2.2 2.2-2.2h5c1.2 0 2.2 1 2.2 2.2s-1 2.2-2.2 2.2m0 14.2h-5c-1.2 0-2.2-1-2.2-2.2 0-1.2 1-2.2 2.2-2.2h5c1.2 0 2.2 1 2.2 2.2 0 1.2-1 2.2-2.2 2.2m0 14.4h-5c-1.2 0-2.2-1-2.2-2.2 0-1.2 1-2.2 2.2-2.2h5c1.2 0 2.2 1 2.2 2.2 0 1.2-1 2.2-2.2 2.2m32.6-28.6h-24c-1.2 0-2.2-1-2.2-2.2s1-2.2 2.2-2.2h24c1.2 0 2.2 1 2.2 2.2s-.9 2.2-2.2 2.2m0 14.2h-24c-1.2 0-2.2-1-2.2-2.2 0-1.2 1-2.2 2.2-2.2h24c1.2 0 2.2 1 2.2 2.2 0 1.2-.9 2.2-2.2 2.2m0 14.4h-24c-1.2 0-2.2-1-2.2-2.2 0-1.2 1-2.2 2.2-2.2h24c1.2 0 2.2 1 2.2 2.2 0 1.2-.9 2.2-2.2 2.2"/></svg>