<svg xmlns="http://www.w3.org/2000/svg" viewBox="0 0 33 48"><g fill="#010101"><path d="M32 0H1C.5 0 0 .5 0 1v46c0 .6.5 1 1 1h31c.6 0 1-.5 1-1V1c0-.5-.5-1-1-1m-1 45.9H2V2.1h29v43.8z"/><path d="M9.4 27.3h14.1c1.7 0 3.1 1.4 3.1 3.1s-1.4 3.1-3.1 3.1H9.2c-.6 0-1 .5-1 1 0 .6.5 1 1 1h14.7c2.6-.2 4.7-2.4 4.7-5.1 0-2.7-2.1-4.9-4.7-5.1H9.4c-1.7 0-3.1-1.4-3.1-3.1 0-1.7 1.4-3.1 3.1-3.1h14.3c.6 0 1-.5 1-1 0-.6-.5-1-1-1H9.4c-2.8 0-5.1 2.3-5.1 5.1s2.3 5.1 5.1 5.1m17.4 10.2c-.4-.4-1-.4-1.4 0L23.9 39l-1.5-1.5c-.4-.4-1-.4-1.4 0-.4.4-.4 1 0 1.5l1.5 1.5-1.5 1.4c-.4.4-.4 1 0 1.4.2.2.5.3.7.3.3 0 .5-.1.7-.3l1.5-1.5 1.5 1.5c.2.2.5.3.7.3.3 0 .5-.1.7-.3.4-.4.4-1 0-1.4l-1.5-1.5 1.5-1.5c.4-.4.4-1 0-1.4"/><path d="M9.4 14.9h14.1c1.7 0 3.1 1.4 3.1 3.1s-1.4 3.1-3.1 3.1H9.2c-.6 0-1 .5-1 1 0 .6.5 1 1 1h14.7c2.6-.2 4.7-2.4 4.7-5.1s-2.1-4.9-4.7-5.1H9.4c-1.7 0-3.1-1.4-3.1-3.1 0-1.7 1.4-3.1 3.1-3.1h2.9c.6 0 1-.5 1-1 0-.6-.5-1-1-1H9.4C6.6 4.7 4.3 7 4.3 9.8s2.3 5.1 5.1 5.1m0 16.5h14.3c.6 0 1-.5 1-1 0-.6-.5-1-1-1H9.4c-.6 0-1 .5-1 1s.4 1 1 1"/></g></svg>