<svg xmlns="http://www.w3.org/2000/svg" viewBox="0 0 512 384"><path d="M0 328V56c.4-1.1.7-2.2 1-3.3C6.3 22.6 32.5.1 63.1.1 191.7 0 320.3 0 448.9.1c29.1 0 54.4 20.5 61.3 48.8.6 2.4 1.3 4.8 1.9 7.1v272c-.4.7-.7 1.5-.9 2.2-4.8 26.6-23.2 47-49.5 51.9-12.3 2.3-25.2 1.7-37.8 1.8-119.7.1-239.5.1-359.3 0-29.4 0-54.2-18.6-62.2-46.4-.8-3-1.6-6.3-2.4-9.5m174.2-140.6c-8 7.9-15.6 15.4-23 22.9l-81.5 81.2c-4.9 4.9-7.2 10.4-5.1 17.2 3.7 12.2 18 15.2 27.6 5.6 33.9-33.7 67.7-67.5 101.4-101.4 1.2-1.5 2.4-3 3.4-4.7 2.8 2.6 4.7 4.2 6.5 5.8l40.7 37c7.7 7 15.8 6.9 23.6-.1 14.1-12.7 28.2-25.5 42.2-38.3 1.3-1.2 2.7-2.4 4.3-3.8 12.7 12.8 25.2 25.3 37.6 37.8l67.8 67.8c4.6 4.6 9.9 6.8 16.3 5.1 12.4-3.4 16-17.8 6.6-27.3-22.7-22.8-45.4-45.6-68.2-68.2-12.1-12.1-24.3-24.2-36.6-36.5 1.6-1.5 2.9-2.8 4.3-4l49.5-45 50.7-46.1c4.9-4.4 6.8-9.9 5.2-16.2-1.3-5.7-5.7-10.2-11.4-11.5-6.4-1.7-11.6.6-16.4 5-53.2 48.4-106.4 96.9-159.8 145.2-1.3 1.2-2.7 2.3-4.1 3.6L179.7 149c-29.3-26.6-58.7-53.2-88-79.9-4.6-4.2-9.8-6.2-16-4.5-5.7 1.4-10 5.8-11.3 11.5-1.5 6.4.5 11.8 5.4 16.2 21 19 42 38.1 62.9 57.1l41.5 38z"/></svg>