<svg xmlns="http://www.w3.org/2000/svg" viewBox="0 0 30.8 43.2"><path d="M22.3 41.2H5.2C3.4 41.2 2 39.8 2 38V8.4c0-.6-.4-1-1-1s-1 .4-1 1V38c0 2.9 2.3 5.2 5.2 5.2h17.1c.6 0 1-.4 1-1s-.4-1-1-1z"/><path d="M30.8 5.2V5c0-.1 0-.1-.1-.2 0-.1-.1-.1-.1-.2l-.1-.1L26.3.3c-.2-.2-.4-.3-.7-.3H8.5C5.6 0 3.3 2.3 3.3 5.2v29.6c0 2.9 2.3 5.2 5.2 5.2h17.1c2.9 0 5.2-2.3 5.2-5.2V5.2zm-4.2-1.8l.9.9-.9.1v-1zm2.2 31.4c0 1.8-1.4 3.2-3.2 3.2H8.5c-1.8 0-3.2-1.4-3.2-3.2V5.2C5.3 3.4 6.7 2 8.5 2h16.1v3.5c0 .6.4 1 1 1h.1l3.1-.2v28.5z"/><path d="M17.8 26.9c-1.2 0-2.2 1-2.2 2.2 0 1.2 1 2.2 2.2 2.2 1.2 0 2.2-1 2.2-2.2.1-1.2-.9-2.2-2.2-2.2m-.2 2.2c0-.1.1-.3.2-.3s.3.1.3.2v.1c-.1.3-.5.3-.5 0zm.2-20.4c-3.6 0-6.5 2.9-6.5 6.5 0 .6.4 1 1 1s1-.4 1-1c0-2.5 2-4.5 4.5-4.5 3.1 0 4.5 1.4 4.5 4.5 0 1.5-1.1 2.5-2.4 3.7-1.5 1.4-3.2 3-3.2 5.6 0 .6.4 1 1 1s1-.4 1-1c0-1.8 1.2-2.9 2.5-4.1 1.4-1.3 3-2.8 3-5.2.1-4.2-2.2-6.5-6.4-6.5"/></svg>