<svg xmlns="http://www.w3.org/2000/svg" viewBox="0 0 13 21"><path d="M9.7 1.3c.2.1.4.3.6.5.2.2.4.5.6.8.2.3.3.6.5 1 .1.4.1.8.1 1.4 0 1-.2 1.7-.6 2.3-.2.3-.4.5-.6.8-.3.2-.6.5-.8.7-.2.2-.3.4-.5.6-.2.2-.2.5-.2.8 0 .3.1.5.2.7.1.2.3.3.4.5l.9.8c.6.5 1.1 1 1.5 1.6.4.6.6 1.3.6 2.3 0 1.3-.6 2.5-1.7 3.5-1.2.8-2.9 1.4-5.1 1.4-1.9 0-3.3-.4-4.2-1.2C.5 19 0 18.2 0 17.1c0-.5.2-1.1.5-1.7.3-.6.8-1.2 1.6-1.6.9-.5 1.8-.8 2.7-1 .9-.1 1.7-.2 2.4-.2-.2-.3-.4-.5-.5-.8-.2-.3-.3-.6-.3-1 0-.2 0-.4.1-.6 0-.2.1-.4.1-.5h-.8c-1.4 0-2.5-.5-3.3-1.4-.8-.8-1.2-1.8-1.2-2.9 0-1.3.6-2.6 1.7-3.7C3.8 1.1 4.6.6 5.4.4 6.2.2 6.9 0 7.6 0H13l-1.7 1.3H9.7zM7 9c.7 0 1.3-.3 1.8-.8.2-.3.3-.7.4-1.1 0-.4.1-.7.1-.9 0-1.1-.3-2.1-.9-3.2-.2-.5-.5-1-1-1.3-.4-.3-.9-.5-1.4-.5-.7 0-1.3.3-1.8.9-.4.6-.6 1.3-.6 2 0 1 .3 2 .8 3.1.3.5.6.9 1.1 1.3.4.3.9.5 1.5.5zm3.7 7.9c0-.7-.2-1.3-.7-1.8-.5-.5-1.2-1.1-2.2-1.8h-.6c-.1 0-.5 0-1 .1-.6.1-1.1.2-1.7.4-.1.1-.3.1-.6.2-.2.1-.5.3-.8.5-.2.2-.5.5-.6.8-.2.3-.3.8-.3 1.2 0 1 .4 1.7 1.3 2.4.8.6 1.9.9 3.3 1 1.3 0 2.2-.3 2.9-.8.7-.6 1-1.3 1-2.2z"/></svg>