<svg xmlns="http://www.w3.org/2000/svg" viewBox="0 0 24 40"><path d="M5.1 17.3h4.3c.4 0 .8-.4.8-.8s-.4-.8-.8-.8H5.1c-.4 0-.8.4-.8.8s.3.8.8.8m-.8 3.5c0 .4.4.8.8.8h9.2c.4 0 .8-.4.8-.8s-.4-.8-.8-.8H5.1c-.5 0-.8.4-.8.8m.1 4.3c0 .4.4.8.8.8h13.1c.4 0 .8-.4.8-.8s-.4-.8-.8-.8H5.2c-.4 0-.8.3-.8.8m13.9 3.4H5.2c-.4 0-.8.4-.8.8s.4.8.8.8h13.1c.4 0 .8-.4.8-.8s-.4-.8-.8-.8m-.2 4.7h-4.3c-.4 0-.8.4-.8.8s.4.8.8.8h4.3c.4 0 .8-.4.8-.8s-.3-.8-.8-.8m1.6-25.6l-.6-.2V3.6c.3.1.6.2.8.4.4.2.7.6.9 1 .1.3.5.5.8.4.4-.2.6-.6.4-1-.6-1.2-1.6-1.8-2.9-2.1V.9c0-.5-.3-.9-.7-.9s-.7.4-.7.9v1.3c-.9.1-1.7.3-2.4.8-.7.6-1.1 1.3-1.1 2.3 0 .6.1 1.1.4 1.6.3.5.6.8 1 1 .4.2.9.4 1.5.6l.6.2V13c-1.2-.2-2.1-.8-2.6-1.9-.1-.2-.4-.4-.6-.3-.4.1-.7.6-.5 1 .8 1.5 2 2.3 3.7 2.5v2.1c0 .5.3.9.7.9s.7-.4.7-.9v-2.1c1-.1 1.9-.4 2.5-1 .7-.7 1.1-1.5 1.1-2.5 0-1.7-1-2.7-3-3.2m-2.1-.5c-1.3-.3-1.9-.9-1.9-1.7 0-.6.2-1.1.7-1.4.4-.3.8-.4 1.3-.5v3.7l-.1-.1zm2.9 5.4c-.3.3-.8.5-1.4.5V9l.3.1c.5.1.9.3 1.2.6.4.3.5.7.5 1.2.1.7-.2 1.2-.6 1.6"/><path d="M21.9 18.1V36c0 1-.8 1.9-1.9 1.9H4c-1 0-1.9-.8-1.9-1.9V4c0-1 .8-1.9 1.9-1.9h7.7V0H4C1.8 0 0 1.8 0 4v32c0 2.2 1.8 4 4 4h16c2.2 0 4-1.8 4-4V18.1h-2.1z"/></svg>