<svg xmlns="http://www.w3.org/2000/svg" viewBox="0 0 59.9 60"><path d="M39.9 49h-.1c-6.9-.7-11.4-5.1-11.5-5.3-.4-.4-.4-1 0-1.4.4-.4 1-.4 1.4 0 0 0 4.2 4.1 10.3 4.7.5.1.9.5.9 1.1 0 .5-.5.9-1 .9zM18 33c-.2 0-.4-.1-.6-.2-.2-.2-5.7-4.7-6.4-11.7-.1-.5.3-1 .9-1.1.6-.1 1 .3 1.1.9.6 6.1 5.7 10.3 5.7 10.3.4.3.5 1 .1 1.4-.2.3-.5.4-.8.4z"/><path d="M39.6 60c-2.6 0-5.4-.8-8.2-2.3-1.7-.9-3.3-2.2-4.9-3.8L6.1 33.3c-1.9-1.9-3.4-4-4.4-6.1-3-6.4-2-12.2 3-17.2l2.5-2.5c.9-.9 2.2-1.4 3.5-1.4.8 0 1.6.2 2.3.6 3.8 2 7.9 9 8.1 9.3.7 1.3 1 2.6.7 3.7-.2.8-.8 1.5-1.5 2-1.2 1-2.6 2.3-2.9 2.6-1.6 2.4-1.4 4.2.6 6.3L29.5 42c2.1 2.1 3.9 2.2 6.3.6.3-.2 1.6-1.6 2.6-2.9.6-1.1 1.7-1.7 3-1.7.9 0 1.8.3 2.7.8.3.2 7.3 4.3 9.3 8.1 1 1.9.7 4.3-.9 5.8L50 55.3c-3.2 3.1-6.6 4.7-10.4 4.7zM10.7 8.1c-.8 0-1.5.3-2.1.9l-2.5 2.5C1.7 15.9.8 20.8 3.4 26.4c.9 1.9 2.2 3.8 4 5.6L28 52.5c1.4 1.4 2.9 2.6 4.4 3.4 2.5 1.4 4.9 2.1 7.2 2.1 3.2 0 6.2-1.4 8.9-4.1l2.5-2.5c.9-.9 1.1-2.3.5-3.4-1.7-3.3-8.5-7.3-8.5-7.3-.6-.3-1.2-.5-1.7-.5-.6 0-1 .2-1.3.7l-.1.1c-.7.9-2.4 2.9-3.1 3.3-3.2 2.1-6.1 1.8-8.8-.9L16.6 31.9c-2.7-2.7-3-5.7-.9-8.8.4-.6 2.5-2.3 3.3-3.1l.1-.1c.4-.2.6-.5.7-.8.2-.6 0-1.4-.5-2.2 0-.1-4-6.8-7.3-8.5-.3-.2-.8-.3-1.3-.3z"/><path d="M26.9 34c-.3 0-.5-.1-.7-.3-.3-.2-.4-.6-.3-1l1.9-8c-1.2-2.4-1.9-5.1-1.9-7.8 0-9.4 7.6-17 17-17s17 7.6 17 17-7.6 17-17 17c-2.9 0-5.8-.8-8.3-2.2L27.2 34h-.3zm7.9-4.3c.2 0 .4 0 .5.1 2.3 1.4 5 2.1 7.7 2.1 8.3 0 15-6.7 15-15s-6.7-15-15-15-15 6.7-15 15c0 2.5.6 5 1.8 7.2.1.2.2.5.1.7l-1.6 6.7 6.2-1.8c.1.1.2 0 .3 0z"/><path d="M49.9 12h-14c-.6 0-1-.4-1-1s.4-1 1-1h14c.6 0 1 .4 1 1s-.4 1-1 1zm2 6h-18c-.6 0-1-.4-1-1s.4-1 1-1h18c.6 0 1 .4 1 1s-.4 1-1 1zm-2 6h-14c-.6 0-1-.4-1-1s.4-1 1-1h14c.6 0 1 .4 1 1s-.4 1-1 1z"/></svg>