<svg xmlns="http://www.w3.org/2000/svg" viewBox="0 0 29 21"><path fill-rule="evenodd" clip-rule="evenodd" d="M0 14.9s5.8 5 10.3 0c0 0-.8 0-1.3-.4-.4-.3-.6-1.1-.6-1.1s1.4-.8.9-1.4c0 0-3.2-.1-3.3-2l1.9-1s-.7.4-1.4 0c0 0-1.9-1.3-1.5-2.7l1.6-.2s-2.7-1.9-2-3.4c0 0 .3-1.3 9.2 4.7 0 0 1.6-5.6 4.5-6.9 0 0 .5.2.5.5 0 0 .4-.9 1-1 0 0 .7.6.2.9 0 0 1.1-.8 1.7-.4 0 0 0 .7-1.6 1.5 0 0 4.1.2 5.6 5.8 0 0 1.8.6 3.5-.4 0 0 .1.8-2.5 2 0 0 .2.4 2.4.1 0 0 0 1.6-3.5 1.6 0 0-2.9 8.5-10.1 9.7C6.8 22.1.7 17.8 0 14.9z"/></svg>