<svg xmlns="http://www.w3.org/2000/svg" viewBox="0 0 23 22"><path d="M18.6 15.7c0-.1-.1-.1-.2-.1s-.2 0-.2.1v.6h.5v-.4c-.1-.3-.1-.1-.1-.2zM7.4 6.8c0 .7 0 1.2.1 1.5.1.3.3.6.5.8.2.2.5.4.9.5.4.1 1.1.2 1.7.2.5 0 .7-.1 1.1-.2.3-.1.6-.3.8-.6.2-.3.4-.6.5-.9.1-.3.1-.9.1-1.6V4.6c0-.6 0-1-.1-1.3-.1-.3-.2-.5-.4-.8-.3-.2-.6-.5-1-.6-.4-.2-.7-.2-1.2-.2-.6-.1-1.5.1-1.9.3-.4.3-.7.6-.8 1-.2.4-.3 1-.3 1.7v2.1zm2.5-2.7c0-.4 0-.7.1-.8 0-.1.1-.2.3-.2.1 0 .3.1.4.2 0 .1.1.4.1.8v3.2c0 .3 0 .6-.1.7 0 .1-.2.2-.4.2-.2-.1-.3-.1-.4-.2 0-.1-.1-.4-.1-.7V4.1zm4.3 5c.1.2.3.4.5.5s.6.1 1 .1c.3 0 .6 0 .9-.1.2-.1.5-.3.6-.6v.7h2.5V1.6h-2.4v5.5c0 .6 0 1-.1 1.1 0 .1-.1.2-.3.2-.2 0-.4-.1-.4-.2s-.1-.5-.1-1.1V1.6H14v6.9c0 .2.1.4.2.6zm-.4 6.6c0-.1-.3-.1-.4-.1-.1 0-.2 0-.2.1v2.9c0 .3 0 .5.1.6 0 .1.1.1.2.1s.4 0 .4-.1.1-.3.1-.7v-2.6c-.1-.3-.1-.1-.2-.2zm-10.6-6h2.4V6.2L7.4-.1 5.1 0c-.3 1.8-.5 3.1-.7 4.2 0-.7-.3-2.3-.6-4.2H1.5l1.8 6.2v3.5zm15.7 1.7H4.1c-2.3 0-4.1 1.8-4.1 4.1v2.4C0 20.1 1.8 22 4.1 22h14.8c2.3 0 4.1-1.8 4.1-4.1v-2.4c0-2.3-1.8-4.1-4.1-4.1zM5.7 14.6H5v5.7H3.3v-5.7h-.8V13h3.2v1.6zm5 5.7H8.9v-.5c-.1.2-.3.3-.5.4-.2.1-.4.1-.6.1-.3 0-.5 0-.7-.1-.1 0-.3-.2-.4-.3-.1-.2-.1-.3-.2-.5v-4.8h1.6v4.6c0 .1.3.1.4.1.1 0 .3 0 .3-.1v-4.5h1.7v5.6zm5-1.6c0 .4 0 .7-.1.9s-.2.4-.4.5c-.2.2-.5.2-.8.2-.2 0-.4 0-.6-.1-.2-.1-.6-.2-.7-.4l-.1.5h-1.5V13h1.6v2.1c.1-.2.5-.3.7-.4.2-.1.4-.1.6-.1.2 0 .5 0 .6.1.2.1.3.2.4.3.1.1.2.3.2.4v3.3zm4.7-1.6h-2.3v1.7c0 .3 0 .4.1.5 0 .1.1.1.2.1s.2-.1.3-.2c0-.1.1-.3.1-.6v-.8h1.7v.4c0 .4 0 .6-.1.8 0 .2-.2.4-.3.6-.2.2-.4.4-.6.5-.3.1-.6.2-1 .2s-.6-.1-.9-.2c-.3-.1-.6-.3-.7-.4-.2-.2-.3-.4-.3-.6-.1-.2-.1-.6-.1-1v-1.9c0-.5.1-.5.2-.8.1-.3.4-.5.7-.7.3-.2.6-.2 1-.2.5 0 .9.1 1.2.3.3.2.6.4.7.7.1.3.2.5.2 1.1v.5z"/></svg>